HIERARCHY
ROOT Hips
{
  OFFSET -187.679 86.5976 -156.378
  CHANNELS 6 Xposition Yposition Zposition Zrotation Xrotation Yrotation
  JOINT LeftUpLeg
  {
    OFFSET 8.64259 1.95398 -2.38835
    CHANNELS 3 Zrotation Xrotation Yrotation
    JOINT LeftLeg
    {
      OFFSET 43.7702 0 0
      CHANNELS 3 Zrotation Xrotation Yrotation
      JOINT LeftFoot
      {
        OFFSET 40.6238 0 0
        CHANNELS 3 Zrotation Xrotation Yrotation
        JOINT LeftToeBase
        {
          OFFSET 12.7242 0 0
          CHANNELS 3 Zrotation Xrotation Yrotation
          End Site
          {
            OFFSET 0 0 0
          }
        }
      }
    }
  }
  JOINT RightUpLeg
  {
    OFFSET -8.2249 1.95398 -2.59336
    CHANNELS 3 Zrotation Xrotation Yrotation
    JOINT RightLeg
    {
      OFFSET 43.5653 0 0
      CHANNELS 3 Zrotation Xrotation Yrotation
      JOINT RightFoot
      {
        OFFSET 40.6238 0 0
        CHANNELS 3 Zrotation Xrotation Yrotation
        JOINT RightToeBase
        {
          OFFSET 12.7242 0 0
          CHANNELS 3 Zrotation Xrotation Yrotation
          End Site
          {
            OFFSET 0 0 0
          }
        }
      }
    }
  }
  JOINT Spine
  {
    OFFSET 0.165834 0.87714 6.61349
    CHANNELS 3 Zrotation Xrotation Yrotation
    JOINT Spine1
    {
      OFFSET 7.38963 1.71661e-005 0
      CHANNELS 3 Zrotation Xrotation Yrotation
      JOINT Spine2
      {
        OFFSET 11.9445 1.14441e-005 0
        CHANNELS 3 Zrotation Xrotation Yrotation
        JOINT Spine3
        {
          OFFSET 14.7254 4.19617e-005 0
          CHANNELS 3 Zrotation Xrotation Yrotation
          JOINT Spine4
          {
            OFFSET 10.9679 0 0
            CHANNELS 3 Zrotation Xrotation Yrotation
            JOINT RightShoulder
            {
              OFFSET 2.46616 -1.6653 3.69651
              CHANNELS 3 Zrotation Xrotation Yrotation
              JOINT RightArm
              {
                OFFSET 13.0012 0 0
                CHANNELS 3 Zrotation Xrotation Yrotation
                JOINT RightForeArm
                {
                  OFFSET 28.7848 1.52588e-005 0
                  CHANNELS 3 Zrotation Xrotation Yrotation
                  JOINT RightHand
                  {
                    OFFSET 26.5688 1.52588e-005 0
                    CHANNELS 3 Zrotation Xrotation Yrotation
                    End Site
                    {
                      OFFSET 0 0 0
                    }
                  }
                }
              }
            }
            JOINT LeftShoulder
            {
              OFFSET 2.38034 -1.29275 -3.7523
              CHANNELS 3 Zrotation Xrotation Yrotation
              JOINT LeftArm
              {
                OFFSET 16.3182 6.10352e-005 0
                CHANNELS 3 Zrotation Xrotation Yrotation
                JOINT LeftForeArm
                {
                  OFFSET 27.0901 0 0
                  CHANNELS 3 Zrotation Xrotation Yrotation
                  JOINT LeftHand
                  {
                    OFFSET 24.5451 1.52588e-005 0
                    CHANNELS 3 Zrotation Xrotation Yrotation
                    End Site
                    {
                      OFFSET 0 0 0
                    }
                  }
                }
              }
            }
            JOINT Neck
            {
              OFFSET 5.0226 -0.0266342 0
              CHANNELS 3 Zrotation Xrotation Yrotation
              JOINT Head
              {
                OFFSET 6.69363 2.86102e-005 0
                CHANNELS 3 Zrotation Xrotation Yrotation
                End Site
                {
                  OFFSET 0 0 0
                }
              }
            }
          }
        }
      }
    }
  }
}
MOTION
Frames:	15
Frame Time:	0.0416667
-23.5974 90.7426 18.9619 102.589 48.4305 82.6149 -171.966 27.605 88.9134 -8.66423 36.985 2.6149 59.7971 3.15837 -2.92164 158.653 -1.67545 -49.95 174.801 29.6335 95.9541 -54.7108 6.36246 7.44916 74.657 -0.259537 -1.02663 19.7976 -2.92563 4.01508 -0.926712 7.90096 -89.9102 11.0752 -1.80299 0.352654 -0.594595 -1.78571 0.431686 -23.1394 -1.82559 -0.205694 -3.1268 -1.82559 -0.205698 84.5991 -52.0123 -108.163 31.3313 -17.3501 0.682681 -14.6432 -13.0566 -11.3483 -6.81356 0.0129684 -5.5806 -90.4879 -42.2281 76.342 -16.5665 19.3479 -25.9617 9.55446 -4.77443 -12.9805 -2.41299 -0.0899704 -4.2963 7.33761 -2.05548 -11.3385 8.63622 0.587697 2.91306 
-15.7486 89.6807 11.3593 103.783 46.371 83.2874 -172.411 24.8713 92.0845 -4.7355 37.3636 0.9049 56.5772 0.346878 -4.02865 160.245 -4.16757 -51.7457 174.428 24.0566 97.6147 -61.8504 4.60381 7.71012 83.2152 -2.25426 -0.350978 19.9557 -3.04309 4.4314 -0.545947 8.00073 -90.1683 10.8718 -1.16472 -0.226204 -0.798655 -1.17356 -0.174725 -23.3372 -1.04288 -0.565828 -3.3246 -1.04289 -0.565834 84.8648 -50.9538 -108.102 27.5505 -20.4606 -4.9127 -14.5409 -13.8356 -12.5667 -9.05449 -0.0282375 -4.92504 -91.0713 -44.5373 76.01 -20.7712 24.5924 -17.7406 7.64635 -6.24096 -4.13332 -2.90466 -0.0904606 -3.21143 7.74769 -1.14252 -7.7515 8.71596 0.664474 1.80019 
-9.32362 90.0244 4.87754 103.679 46.3964 81.843 -174.187 23.5821 91.1293 -3.37131 25.0472 0.513038 55.7088 5.9307 -14.2338 164.076 0.129775 -47.5794 174.597 16.8484 95.0749 -61.8518 3.0245 8.05633 89.6919 -3.66678 0.203894 22.5164 -2.35983 3.97266 -0.303343 8.04777 -89.9806 10.7786 -0.595003 0.0936661 -0.892179 -0.590289 0.119764 -23.4284 -0.595646 -0.0894896 -3.41576 -0.595646 -0.0894923 84.9803 -50.6889 -108.014 22.9282 -18.9041 -12.0776 -16.1795 -13.8541 -15.7809 -11.1507 -0.143516 -3.63812 -90.8267 -44.9897 76.5142 -27.8788 24.3817 -6.22795 7.52132 -8.06634 -5.85433 -3.50139 -0.105056 -2.32919 6.24293 -1.34577 -7.84279 9.84485 0.452314 2.24573 
-4.67112 91.8099 -0.235643 101.918 44.1391 80.8247 -176.267 23.8015 89.9577 -4.31903 9.91522 0.512641 58.9702 9.60077 -23.5363 170.017 10.93 -39.1398 174.558 10.0601 93.9953 -56.2848 1.68063 4.33605 91.2382 -3.88239 -0.154553 23.4161 -2.34247 4.44403 0.287958 8.07927 -89.6766 10.7123 0.722494 0.576788 -0.958585 0.747154 0.544428 -23.4934 0.51575 0.76725 -3.48078 0.515753 0.767249 86.0442 -48.9596 -106.948 20.569 -17.9457 -18.2029 -19.0522 -13.9182 -22.1076 -11.1059 -0.215338 -2.8608 -90.3367 -45.4623 77.4013 -31.9027 24.737 4.21024 8.08517 -6.697 -13.8374 -4.14113 -0.121837 -1.92425 7.11517 -2.02674 -5.85512 9.63839 -0.678755 1.14475 
-0.665032 93.6585 -5.1466 101.251 41.9367 80.965 -178.754 24.0385 90.3492 -6.94595 14.5019 1.01058 59.5183 4.57792 -17.1093 168.426 19.9051 -32.7721 174.52 2.08641 89.333 -48.4793 0.468142 2.17165 89.4903 -4.55528 -0.0636464 25.386 -2.2694 5.44369 0.856669 8.19848 -89.6642 10.4733 1.86052 0.502059 -1.19634 1.88082 0.419658 -23.7395 1.6236 1.03813 -3.72681 1.62359 1.03813 86.2374 -47.1529 -107.215 17.3643 -18.1721 -23.6807 -20.9293 -13.4503 -26.7426 -11.293 -0.261997 -2.39672 -90.8826 -48.1409 77.2017 -31.7399 21.7683 10.5335 8.51476 -6.5927 -16.4765 -4.51971 -0.139217 -1.24831 7.7373 -2.78585 -1.09793 10.9295 -2.68422 -1.67567 
4.36753 95.0926 -10.9722 102.627 41.6563 80.0709 -179.493 22.3149 87.5286 -9.25698 13.5601 4.8506 54.7533 -1.61148 -15.6504 127.229 29.7563 -8.50875 173.93 -8.76223 92.9253 -37.1417 -0.136031 1.36579 87.4399 -5.97299 -1.2982 25.7895 -2.15678 5.34702 1.13688 8.35316 -89.7669 10.1662 2.37175 0.262551 -1.50264 2.38101 0.157844 -24.0529 2.18314 0.963542 -4.04028 2.18312 0.963547 86.2878 -46.5339 -107.334 13.895 -18.7016 -27.8156 -21.7372 -15.5282 -27.4615 -10.9534 -0.199386 -2.9933 -91.1602 -50.3865 77.3184 -32.0283 16.9039 12.7156 8.74503 -7.43197 -13.2908 -4.78316 -0.151067 -1.16277 7.33867 -3.03771 1.55285 11.6485 -3.58639 -2.52276 
10.9012 95.454 -18.0988 102.058 39.6332 79.915 -179.513 18.7714 85.9619 -9.1248 11.0541 4.55988 53.5732 -2.2872 -11.1861 79.2796 19.7014 9.90358 171.561 -18.3066 88.1028 -28.6552 -2.90974 0.807023 83.0547 -6.48568 -2.13943 29.4484 -1.64678 6.21393 1.46149 8.23622 -89.6903 10.3993 3.05335 0.347838 -1.26812 3.06571 0.212976 -23.8282 2.80755 1.25011 -3.81556 2.80755 1.25011 85.5214 -47.0546 -108.364 13.353 -20.0334 -28.478 -19.789 -16.6219 -23.4963 -10.5088 -0.151407 -3.46416 -90.8125 -51.3761 78.056 -33.5576 14.8253 13.6759 7.78116 -11.5587 -11.4372 -5.70061 -0.1425 -2.26891 6.85293 -3.06856 1.40321 11.1341 -3.55113 -2.34736 
18.6036 96.5195 -26.3583 101.063 37.5228 79.5221 -179.058 14.6126 84.5501 -12.5999 14.7818 2.77061 56.4327 0.0777757 -4.43797 27.1497 -5.58075 15.129 169.265 -20.3421 83.9421 -31.0833 -5.53286 -1.18891 70.0247 -3.43937 -3.13363 37.5945 -1.18786 12.0023 1.52925 8.00348 -89.4582 10.8581 3.29524 0.769457 -0.808837 3.32591 0.623533 -23.3697 2.91156 1.72495 -3.35701 2.91154 1.72494 85.286 -47.2942 -108.65 18.3741 -22.7279 -25.6043 -16.738 -16.8034 -17.8399 -10.6402 -0.144596 -3.56006 -89.9183 -51.5401 79.4025 -33.9795 11.9295 13.5474 8.57217 -10.914 -12.295 -7.24728 -0.158599 -2.49604 8.11073 -2.75554 0.20246 9.41554 -2.99224 -2.51389 
25.6319 97.4445 -33.9336 102.76 37.8564 76.5253 -177.781 15.4867 80.3365 -32.3 16.1797 3.80543 68.0022 2.93292 -3.55393 12.5132 -12.3093 10.8655 168.512 -11.3742 80.0237 -51.2008 -9.66658 -3.72124 54.8877 0.795904 0.0179767 30.2911 -2.1925 9.22995 1.14685 8.02893 -89.1872 10.8003 2.65883 1.37069 -0.86849 2.71657 1.25229 -23.4131 2.124 2.10651 -3.40043 2.12401 2.10651 84.8588 -47.8707 -109.117 23.2575 -25.0881 -20.1646 -15.0972 -17.0361 -15.3723 -10.9184 -0.101713 -4.07217 -90.3384 -50.3602 78.5308 -31.4702 16.0408 8.35553 8.1077 -10.7403 -10.1424 -7.02053 -0.149962 -2.67476 8.07117 -2.56952 -1.62694 9.76378 -2.41635 -2.34282 
31.5168 98.5628 -39.6528 103.894 37.072 75.0995 -177.279 9.30343 78.6826 -35.1159 14.3534 4.56604 73.2085 4.95787 -1.86883 11.4712 -9.89023 5.50686 173.171 1.32208 81.7911 -66.9114 -9.76776 -6.24854 59.6122 -0.909846 -0.536046 26.1096 -2.19171 5.62675 0.818231 8.19266 -89.0413 10.4688 2.06968 1.72161 -1.20144 2.14344 1.62884 -23.735 1.45672 2.26391 -3.72235 1.45672 2.2639 84.7729 -48.6238 -108.997 25.8139 -26.0345 -16.2686 -14.7603 -17.9585 -14.9514 -11.4508 -0.120718 -3.90937 -90.7045 -49.4315 77.7755 -23.223 18.1331 -2.0486 8.079 -10.9049 -8.53209 -3.36721 -0.104683 -1.66522 7.66935 -1.96279 -2.75673 10.0484 -1.67654 -2.96928 
37.7052 100.163 -44.614 104.994 39.5273 77.3414 -176.736 1.55012 81.4896 -32.6863 17.1048 7.12789 78.8008 7.72613 -1.15696 3.27987 -13.1899 3.95734 175.646 9.48619 87.6517 -60.8333 2.86938 -3.6563 68.304 -3.87405 -0.780932 26.5609 -2.08518 5.6363 0.251246 8.2209 -89.3817 10.4266 0.783933 1.15941 -1.24455 0.834196 1.12378 -23.7762 0.399282 1.34139 -3.76355 0.39927 1.34138 85.0984 -49.0218 -108.37 28.2332 -24.8479 -11.7377 -15.1581 -16.4453 -15.6019 -9.8293 -0.0592259 -4.50151 -90.2375 -47.9959 78.1517 -15.6446 15.3836 -11.4005 8.25266 -11.3591 -11.392 -1.28384 -0.0623531 -1.61966 5.04852 -1.10357 -4.22202 10.9058 -0.521946 -1.82844 
44.0881 100.822 -49.4063 104.737 42.538 79.5895 -175.244 -4.84063 85.1165 -29.2683 22.3654 8.08279 79.545 9.46195 1.08404 6.90684 -10.7581 2.94464 177.092 13.713 91.6655 -40.4421 11.6521 -0.765028 69.1382 -4.50429 -0.0951547 26.4218 -1.78537 4.58613 -0.130704 8.19446 -89.6591 10.4842 -0.10392 0.686533 -1.18689 -0.0735897 0.690436 -23.7208 -0.305456 0.623573 -3.70817 -0.30543 0.623565 85.4657 -49.4647 -107.671 29.6504 -21.4514 -6.28002 -16.8577 -14.5711 -18.3309 -9.94286 -0.0896502 -4.12898 -89.5752 -44.7055 78.419 -12.4643 11.7973 -20.3442 8.85502 -10.1219 -16.2768 -0.439392 -0.0642215 -2.9079 4.62804 -1.43305 -7.00623 10.9447 -0.167302 -0.258014 
50.8285 100.142 -54.6055 103.782 44.3857 81.02 -173.022 -10.0529 88.5619 -27.9483 25.5837 7.78042 80.9766 10.7517 1.32615 11.3809 -8.54862 2.8714 177.98 14.1554 93.3203 -16.0744 9.34706 1.25628 63.8907 -3.31748 -0.711631 27.1422 -1.59578 4.43179 -0.315811 8.16445 -89.719 10.5459 -0.49982 0.603206 -1.12507 -0.472788 0.624615 -23.6604 -0.65799 0.425101 -3.64779 -0.658004 0.425101 84.4706 -51.3156 -108.571 29.2727 -18.6977 -2.04653 -17.8166 -14.3892 -19.6092 -9.30536 -0.0977661 -3.96487 -89.3848 -42.6135 78.232 -10.9007 7.24789 -27.102 9.95566 -7.90892 -22.7733 -0.394551 -0.0853037 -4.09423 5.74546 -2.1943 -10.8612 10.9519 0.0613458 1.19768 
58.1099 98.3446 -60.7386 103.66 45.6428 80.8815 -170.509 -16.4379 91.5318 -27.0747 28.0338 7.41592 86.101 13.2989 0.156089 8.17979 -10.5413 3.6703 178.361 14.6102 93.9924 -7.45553 9.99318 2.58535 63.1512 -3.03559 -0.98578 28.0745 -1.22764 3.82156 -0.527218 8.17613 -89.6892 10.5237 -0.907299 0.698087 -1.14718 -0.875722 0.737331 -23.6842 -1.07515 0.393118 -3.67154 -1.07517 0.393108 84.028 -52.2668 -108.919 29.0025 -18.8782 -1.28331 -15.7219 -13.1546 -14.9511 -7.94393 -0.0413013 -4.69428 -89.9322 -43.3396 77.5233 -11.0701 3.00874 -29.7772 11.5075 -5.05801 -27.0249 -0.428554 -0.0976475 -4.81422 7.04993 -2.6314 -12.0624 10.758 -0.0549754 0.772387 
66.45 97.4744 -68.0071 104.097 47.6682 81.7484 -166.372 -23.4376 97.2133 -23.8428 33.6243 8.42653 80.1214 10.9931 1.9801 18.5214 -5.89987 4.15968 177.989 19.51 95.7324 -23.1831 6.61321 2.56703 61.3781 -0.26722 -0.844774 23.5672 -2.3513 4.55748 -0.725992 8.05937 -89.9038 10.7578 -1.40123 0.320684 -0.912483 -1.38577 0.38205 -23.4537 -1.43281 -0.11536 -3.44106 -1.43283 -0.115369 84.8364 -52.134 -107.776 30.0071 -17.97 0.141396 -15.2821 -13.8305 -13.2307 -7.52591 -0.0310021 -4.83342 -90.5459 -44.4173 76.8126 -12.2625 6.51028 -28.7588 10.9712 -5.77825 -22.5819 0.364822 -0.0739372 -3.65187 7.16223 -2.72031 -11.445 9.78204 -0.339108 0.0746658 
